<svg width="40" height="40" viewBox="0 0 40 40" fill="none" xmlns="http://www.w3.org/2000/svg">
<path d="M11.1291 4.49843C10.4061 5.31478 10.0795 6.06116 10.2428 6.55097C10.3361 6.80754 10.476 7.01746 10.5693 7.01746C10.9192 7.01746 11.479 6.2011 11.6423 5.50138C11.7356 5.10486 11.8522 4.61505 11.9221 4.38181C12.0621 3.82202 11.6889 3.892 11.1291 4.49843Z" fill="#9E252F"/>
<path d="M28.3856 4.38181C28.4556 4.61505 28.5722 5.10486 28.6655 5.50138C28.8288 6.2011 29.3886 7.01746 29.7384 7.01746C30.0883 7.01746 30.2049 6.10781 29.925 5.57135C29.3186 4.38181 28.1524 3.49548 28.3856 4.38181Z" fill="#9E252F"/>
<path d="M13.6478 4.98824C13.3446 5.12818 12.9481 5.50137 12.7615 5.75794C12.4583 6.24775 12.4583 6.24775 13.4146 6.08448C13.9511 5.99118 14.6275 5.64132 14.9773 5.29145L15.6071 4.68502H14.9073C14.5108 4.68502 13.9511 4.82497 13.6478 4.98824Z" fill="#9E252F"/>
<path d="M25.3312 5.29152C25.6577 5.64138 26.3574 5.99125 26.8706 6.08454C27.7569 6.24781 27.8036 6.22449 27.617 5.82798C27.2438 5.15157 26.4041 4.68508 25.5411 4.68508H24.7014L25.3312 5.29152Z" fill="#9E252F"/>
<path d="M7.23472 7.36661C6.67494 8.20628 6.65161 9.55909 7.16475 9.93228C7.37467 10.0722 7.51461 10.2821 7.44464 10.3521C7.37467 10.4454 7.39799 10.4687 7.49129 10.3988C7.86448 10.0956 8.14437 7.6465 7.86448 7.13336C7.65456 6.80682 7.58459 6.83015 7.23472 7.36661Z" fill="#9E252F"/>
<path d="M32.3972 7.27321C32.3039 7.52978 32.2806 8.22951 32.3273 8.83594C32.3972 9.81556 32.3506 9.93218 31.9308 9.86221C31.1377 9.74559 29.6916 9.81556 29.4351 9.95551C29.0152 10.2121 30.2281 10.7252 31.2544 10.7485C32.0241 10.7485 32.2573 10.6552 32.3506 10.282C32.4206 9.97883 32.5838 9.86221 32.8404 9.95551C33.097 10.0488 33.2836 9.90886 33.4468 9.4657C33.6334 8.97589 33.5868 8.62602 33.2369 7.80967C32.7238 6.64345 32.6072 6.57348 32.3972 7.27321Z" fill="#9E252F"/>
<path d="M11.1057 7.46031C10.3127 7.95012 12.5518 8.64985 13.6247 8.23001L14.2079 8.02009L13.4615 7.62358C12.6685 7.22707 11.5955 7.13377 11.1057 7.46031Z" fill="#9E252F"/>
<path d="M26.8001 7.6469L26.1237 8.02009L26.6834 8.23001C27.7564 8.64985 29.9955 7.95012 29.2025 7.46031C28.7127 7.13377 27.5698 7.22707 26.8001 7.6469Z" fill="#9E252F"/>
<path d="M9.63662 8.1134C9.33341 8.48659 9.35673 8.50991 9.72992 8.2067C9.93984 8.04343 10.1264 7.85683 10.1264 7.81018C10.1264 7.62359 9.93984 7.74021 9.63662 8.1134Z" fill="#9E252F"/>
<path d="M30.5313 8.18323C30.7645 8.4398 30.9977 8.64972 31.0677 8.64972C31.1377 8.64972 30.9977 8.4398 30.7645 8.18323C30.5313 7.92667 30.298 7.71675 30.228 7.71675C30.1581 7.71675 30.298 7.92667 30.5313 8.18323Z" fill="#9E252F"/>
<path d="M8.65731 9.88554C7.63104 10.2121 7.86428 10.7485 9.0305 10.7485C10.1034 10.7252 11.4329 10.1654 10.8265 9.97883C10.0334 9.69894 9.26374 9.67562 8.65731 9.88554Z" fill="#9E252F"/>
<path d="M4.43637 10.7947C4.20312 11.7277 4.29642 12.7306 4.66961 13.2671C5.1361 13.9435 5.46264 13.7336 5.46264 12.7073C5.46264 11.9609 4.92618 10.2816 4.69293 10.2816C4.62296 10.2816 4.52966 10.5148 4.43637 10.7947Z" fill="#9E252F"/>
<path d="M35.2185 11.0279C34.7287 12.1475 34.7287 13.5469 35.1951 13.5469C35.8949 13.5469 36.2681 11.7743 35.7783 10.6314C35.615 10.2116 35.545 10.2582 35.2185 11.0279Z" fill="#9E252F"/>
<path d="M6.74513 12.8938C5.74219 13.4536 5.67221 14.0134 6.62851 14.0134C7.07167 14.0134 7.58481 13.7568 8.07462 13.3136L8.84432 12.6372H8.02797C7.58481 12.6372 7.0017 12.7539 6.74513 12.8938Z" fill="#9E252F"/>
<path d="M32.2337 13.3135C33.2366 14.2465 34.7994 14.3164 34.1929 13.4068C33.913 12.9636 33.0267 12.6138 32.2337 12.6138L31.464 12.6371L32.2337 13.3135Z" fill="#9E252F"/>
<path d="M2.66394 15.622C2.66394 16.5783 3.38699 17.7445 3.9701 17.7445C4.52989 17.7445 4.34329 16.7182 3.57359 15.692C3.17708 15.1555 2.80389 14.7123 2.75724 14.7123C2.71059 14.7123 2.66394 15.1089 2.66394 15.622Z" fill="#9E252F"/>
<path d="M36.7811 15.6454C35.9414 16.7649 35.7548 17.8379 36.3846 17.6979C37.0843 17.558 37.6907 16.4851 37.5974 15.5054L37.5275 14.5958L36.7811 15.6454Z" fill="#9E252F"/>
<path d="M5.8823 16.3684C5.22921 16.695 4.99597 16.9749 4.99597 17.3947C4.99597 17.9545 5.0193 17.9778 5.74235 17.6746C6.5587 17.3481 7.63162 15.8786 7.04851 15.8786C6.88524 15.9019 6.34878 16.1119 5.8823 16.3684Z" fill="#9E252F"/>
<path d="M33.3763 16.625C33.6096 17.0215 34.146 17.5113 34.5659 17.6746C35.2889 17.9778 35.3122 17.9545 35.3122 17.3947C35.3122 16.9515 35.079 16.7183 34.3793 16.3451C33.0964 15.692 32.8632 15.7387 33.3763 16.625Z" fill="#9E252F"/>
<path d="M4.36642 19.2602C4.36642 19.7733 4.41307 19.9599 4.45972 19.6567C4.50636 19.3768 4.50636 18.957 4.45972 18.7237C4.38974 18.5138 4.34309 18.747 4.36642 19.2602Z" fill="#9E252F"/>
<path d="M35.8248 19.2602C35.8248 19.6334 35.8715 19.7733 35.9415 19.5401C35.9881 19.3302 35.9881 19.0036 35.9415 18.8404C35.8715 18.7004 35.8248 18.8637 35.8248 19.2602Z" fill="#9E252F"/>
<path d="M2.08094 19.8896C2.43081 21.0091 2.94394 21.7322 3.50373 21.9654C3.83027 22.0821 4.20346 22.1287 4.32008 22.0587C4.69327 21.8022 3.87691 20.636 2.89729 19.9829C1.91767 19.3531 1.91767 19.3531 2.08094 19.8896Z" fill="#9E252F"/>
<path d="M5.83565 20.0762C5.29919 20.5427 4.99597 21.0325 4.99597 21.3824C4.99597 22.0355 5.15924 22.0821 5.85897 21.5923C6.34878 21.2424 7.02519 19.703 6.79194 19.4698C6.72197 19.3998 6.30213 19.6797 5.83565 20.0762Z" fill="#9E252F"/>
<path d="M33.4462 19.6097C33.4462 20.1695 34.1459 21.4523 34.5657 21.6856C35.2421 22.0355 35.3121 22.0121 35.3121 21.3824C35.3121 21.0325 35.0089 20.5427 34.4958 20.0995C33.5861 19.3065 33.4462 19.2365 33.4462 19.6097Z" fill="#9E252F"/>
<path d="M37.2708 20.0761C36.4078 20.6825 35.6148 21.8487 35.8714 22.1286C36.1046 22.3385 37.4341 21.6388 37.6674 21.1723C37.9006 20.7525 38.3671 19.353 38.2738 19.3763C38.2505 19.3997 37.8073 19.7029 37.2708 20.0761Z" fill="#9E252F"/>
<path d="M6.83848 23.2475C6.20873 23.9706 5.95216 24.647 6.09211 25.1601C6.16208 25.44 6.30202 25.6733 6.41865 25.6733C6.86181 25.6733 7.35162 24.5071 7.28165 23.6907C7.21167 22.851 7.18835 22.851 6.83848 23.2475Z" fill="#9E252F"/>
<path d="M32.9797 23.6907C32.9797 24.6237 33.4929 25.6733 33.936 25.6733C34.4025 25.6733 34.146 24.0639 33.5628 23.4108L33.0031 22.7577L32.9797 23.6907Z" fill="#9E252F"/>
<path d="M2.87376 24.4837C3.52684 25.6733 5.696 26.6995 5.696 25.8365C5.696 25.3467 4.97295 24.7869 3.85338 24.3904C2.59387 23.9473 2.59387 23.9473 2.87376 24.4837Z" fill="#9E252F"/>
<path d="M36.3848 24.4136C34.7755 24.9968 33.9824 26.1396 35.172 26.1396C35.7784 26.1396 37.0379 25.2067 37.4344 24.4836C37.691 23.9705 37.5977 23.9705 36.3848 24.4136Z" fill="#9E252F"/>
<path d="M8.54063 26.5357C8.05082 27.7952 8.02749 28.1451 8.35403 28.6115C8.63393 28.9614 8.75055 29.0081 9.00712 28.7515C9.35698 28.4016 9.35698 26.8622 9.03044 26.2791C8.82052 25.9059 8.77387 25.9526 8.54063 26.5357Z" fill="#9E252F"/>
<path d="M31.1142 26.7455C30.6711 28.215 31.5107 29.7777 32.0239 28.4249C32.2105 27.8884 32.0472 27.0021 31.6274 26.2324C31.4175 25.8825 31.3475 25.9525 31.1142 26.7455Z" fill="#9E252F"/>
<path d="M7.32788 28.0984C7.32788 28.145 7.51448 28.3316 7.74772 28.4949C8.09758 28.7981 8.12091 28.7748 7.81769 28.4016C7.51448 28.0284 7.32788 27.9118 7.32788 28.0984Z" fill="#9E252F"/>
<path d="M32.4901 28.4016C32.1869 28.7748 32.2102 28.7981 32.5834 28.4949C32.9566 28.1917 33.0732 28.0051 32.8867 28.0051C32.84 28.0051 32.6534 28.1917 32.4901 28.4016Z" fill="#9E252F"/>
<path d="M5.39213 29.0315C6.20848 29.7312 7.32805 30.0345 7.88783 29.7079C8.58756 29.3114 7.51464 28.635 5.97524 28.5184L4.64575 28.4018L5.39213 29.0315Z" fill="#9E252F"/>
<path d="M32.8167 28.8447C31.9304 29.2878 31.8604 29.5444 32.5135 29.7543C33.2366 29.9875 34.2628 29.6843 34.8459 29.0313L35.3824 28.4715H34.4728C33.9829 28.4715 33.2132 28.6581 32.8167 28.8447Z" fill="#9E252F"/>
<path d="M11.0591 29.6607C11.0591 30.7569 11.3856 31.5033 11.8754 31.5033C12.3652 31.5033 12.3186 30.2205 11.8288 29.3808C11.269 28.4478 11.0591 28.5411 11.0591 29.6607Z" fill="#9E252F"/>
<path d="M28.4792 29.3808C27.9893 30.2205 27.9427 31.5033 28.4325 31.5033C28.9223 31.5033 29.2489 30.7569 29.2489 29.6607C29.2489 28.5411 29.0389 28.4478 28.4792 29.3808Z" fill="#9E252F"/>
<path d="M30.5079 30.3838L30.0647 30.9202L30.6012 30.4771C31.091 30.0572 31.2309 29.8706 31.0443 29.8706C30.9977 29.8706 30.7644 30.1039 30.5079 30.3838Z" fill="#9E252F"/>
<path d="M9.66003 30.4304C9.66003 30.477 9.84663 30.6636 10.0799 30.8269C10.4297 31.1301 10.4531 31.1068 10.1498 30.7336C9.84663 30.3604 9.66003 30.2438 9.66003 30.4304Z" fill="#9E252F"/>
<path d="M14.0907 30.8965C14.0907 31.8761 14.9304 33.1356 15.5835 33.1356C15.9566 33.1356 15.6534 31.9228 15.117 31.293C14.4872 30.5233 14.0907 30.36 14.0907 30.8965Z" fill="#9E252F"/>
<path d="M25.1912 31.293C24.6548 31.9228 24.3515 33.1356 24.7247 33.1356C25.1679 33.1356 25.7277 32.5758 25.9609 31.9461C26.4974 30.43 26.1475 30.1268 25.1912 31.293Z" fill="#9E252F"/>
<path d="M8.61062 31.9693L7.91089 32.1326L8.77389 32.5058C9.84681 32.9956 10.5932 32.9956 11.1996 32.5525C11.5728 32.2492 11.5961 32.1793 11.2929 31.9693C10.8964 31.7128 9.66021 31.7128 8.61062 31.9693Z" fill="#9E252F"/>
<path d="M28.9221 32.0161C28.5023 32.2493 28.5023 32.2726 29.0387 32.5758C29.7851 32.9957 30.4849 32.9724 31.5344 32.5059L32.3974 32.1327L31.6977 31.9694C30.6248 31.7128 29.4119 31.7128 28.9221 32.0161Z" fill="#9E252F"/>
<path d="M13.0649 34.1149C12.1319 34.5347 12.0153 34.6514 12.3651 34.7913C13.508 35.2345 15.4906 34.698 15.4906 33.9516C15.4906 33.4385 14.4177 33.5318 13.0649 34.1149Z" fill="#9E252F"/>
<path d="M16.7725 33.9281C17.169 34.0914 17.7754 34.5812 18.1253 34.9777L18.755 35.7474V34.8844C18.755 33.9748 18.6851 33.9515 17.1223 33.7415C16.0727 33.6016 16.0727 33.6016 16.7725 33.9281Z" fill="#9E252F"/>
<path d="M22.6026 33.8116C21.7163 33.9515 21.6696 33.9981 21.5996 34.8845L21.5297 35.8174L22.0428 35.141C22.3227 34.7912 22.8825 34.278 23.279 34.0448C23.6755 33.8116 23.9087 33.625 23.7688 33.625C23.6522 33.6483 23.1157 33.7416 22.6026 33.8116Z" fill="#9E252F"/>
<path d="M24.8177 33.9516C24.8177 34.698 26.8003 35.2345 27.9432 34.7913C28.2931 34.6514 28.1765 34.5347 27.1968 34.1149C25.8207 33.5085 24.8177 33.4385 24.8177 33.9516Z" fill="#9E252F"/>
<path d="M12.5552 10.2114H27.8389L27.9842 14.8084H27.337C27.0199 13.3642 26.6148 12.4263 26.1217 11.9948C25.6373 11.5544 24.6113 11.3343 23.0438 11.3343H21.5379V25.1781C21.5379 26.2261 21.7008 26.8777 22.0266 27.1331C22.3525 27.3797 23.0658 27.5426 24.1666 27.6219V28.1107H16.2804V27.6219C17.4252 27.5338 18.1386 27.3445 18.4204 27.0539C18.7022 26.7633 18.8431 26.0323 18.8431 24.8611V11.3343H17.3372C15.8401 11.3343 14.8185 11.55 14.2725 11.9816C13.7353 12.4131 13.3302 13.3554 13.0572 14.8084H12.3967L12.5552 10.2114Z" fill="#9E252F"/>
<g filter="url(#filter0_dd_35_71)">
<path fill-rule="evenodd" clip-rule="evenodd" d="M28.117 15.8232C28.3072 16.2655 28.5393 16.8064 28.6327 17.0252C28.7261 17.244 28.9355 17.7343 29.0979 18.1148C29.2603 18.4953 29.4137 18.8241 29.4388 18.8455C29.4773 18.8782 29.4617 18.9128 29.3384 19.0675C28.9687 19.5314 28.4079 19.7578 27.6286 19.7578C26.8506 19.7578 26.2855 19.5277 25.9117 19.0586C25.7948 18.9118 25.78 18.8781 25.818 18.8455C25.8428 18.8241 25.9757 18.542 26.1132 18.2186C26.2508 17.8952 26.4362 17.4593 26.5252 17.2501C27.1192 15.8535 27.4915 15.019 27.5205 15.019C27.5429 15.019 27.5446 15.0391 27.5256 15.0795C27.494 15.1463 27.1065 16.0511 26.8773 16.5928C26.7968 16.7831 26.5501 17.3571 26.3291 17.8685C26.108 18.3798 25.9272 18.812 25.9272 18.8289C25.9272 18.8463 26.2906 18.8556 26.7625 18.8504L27.5979 18.8412V16.9301C27.5979 15.4242 27.6061 15.0189 27.6363 15.019C27.6665 15.019 27.6746 15.426 27.6746 16.9387V18.8585H28.5044C29.3152 18.8585 29.3337 18.8569 29.315 18.7906C29.3045 18.7532 29.1227 18.3212 28.9109 17.8307C28.5361 16.9624 28.3624 16.5566 27.979 15.6526C27.8767 15.4113 27.7729 15.17 27.7483 15.1164C27.7193 15.0531 27.7154 15.019 27.7374 15.019C27.7559 15.019 27.9267 15.3809 28.117 15.8232Z" fill="#9E252F"/>
</g>
<g filter="url(#filter1_d_35_71)">
<g filter="url(#filter2_dd_35_71)">
<path fill-rule="evenodd" clip-rule="evenodd" d="M13.2421 15.8231C13.4323 16.2655 13.6644 16.8064 13.7578 17.0252C13.8513 17.2439 14.0606 17.7343 14.223 18.1147C14.3854 18.4952 14.5388 18.824 14.5639 18.8454C14.6024 18.8782 14.5868 18.9127 14.4635 19.0674C14.0938 19.5313 13.533 19.7578 12.7537 19.7578C11.9757 19.7578 11.4107 19.5277 11.0368 19.0585C10.9199 18.9118 10.9051 18.8781 10.9431 18.8454C10.9679 18.824 11.1008 18.5419 11.2383 18.2185C11.3759 17.8951 11.5613 17.4593 11.6503 17.25C12.2443 15.8534 12.6166 15.0189 12.6456 15.0189C12.6681 15.0189 12.6697 15.039 12.6507 15.0795C12.6192 15.1463 12.2316 16.0511 12.0024 16.5928C11.922 16.783 11.6752 17.357 11.4542 17.8684C11.2331 18.3798 11.0523 18.812 11.0523 18.8289C11.0523 18.8462 11.4157 18.8555 11.8877 18.8503L12.7231 18.8411V16.93C12.7231 15.4242 12.7312 15.0189 12.7614 15.0189C12.7916 15.0189 12.7997 15.4259 12.7997 16.9387V18.8584H13.6295C14.4403 18.8584 14.4589 18.8569 14.4402 18.7905C14.4296 18.7531 14.2478 18.3212 14.036 17.8306C13.6612 16.9624 13.4875 16.5565 13.1042 15.6525C13.0018 15.4112 12.898 15.17 12.8735 15.1164C12.8444 15.053 12.8406 15.0189 12.8625 15.0189C12.881 15.0189 13.0519 15.3808 13.2421 15.8231Z" fill="#9E252F"/>
</g>
</g>
<path fill-rule="evenodd" clip-rule="evenodd" d="M24.0413 11.8511C23.8329 12.3245 23.4471 12.3596 22.4753 11.9938C22.0655 11.8396 21.6817 11.7134 21.6225 11.7134C21.5633 11.7134 21.5148 11.8861 21.5148 12.0972C21.5148 12.4467 21.5636 12.5057 22.0621 12.7582C23.1225 13.2956 23.7521 14.1917 24.0569 15.5973C24.141 15.9852 24.2515 16.2308 24.3419 16.2308C24.4609 16.2308 24.4897 15.7691 24.4897 13.8619C24.4897 11.9736 24.4602 11.493 24.3443 11.493C24.2644 11.493 24.128 11.6541 24.0413 11.8511ZM18.1638 12.7239C16.9172 14.1802 17.0978 16.3511 18.5887 17.8306C19.2863 18.5229 19.955 18.9606 21.8866 19.9893C22.9611 20.5614 23.6322 21.0036 24.1453 21.4777C26.5037 23.6562 26.8133 26.9285 24.8587 29.0181C23.9696 29.9685 22.931 30.4603 21.3747 30.6673C18.3194 31.074 15.6788 29.1674 15.0542 26.1037C14.7532 24.6271 15.1404 23.1497 16.1206 22.0362C16.6217 21.4669 17.6418 20.9074 18.3805 20.7967C18.8539 20.7257 18.8705 20.71 18.8705 20.3348V19.9463L18.1938 20.0077C16.2809 20.1811 14.2409 22.0152 13.6916 24.0554C13.5065 24.7425 13.5361 26.1531 13.7513 26.8979C14.4965 29.4786 16.6026 31.2506 19.4131 31.6615C21.0676 31.9034 22.6745 31.6455 24.2178 30.8903C25.69 30.1698 26.8876 28.7894 27.356 27.2728C27.7029 26.1497 27.6622 24.4788 27.26 23.3231C26.6179 21.4788 25.3062 20.0064 23.2106 18.7775C21.1 17.5399 20.3004 16.979 19.6989 16.3142C18.904 15.4358 18.7603 14.9614 18.8313 13.4487C18.8961 12.0668 18.808 11.9711 18.1638 12.7239ZM21.4968 22.0524C21.4558 23.5201 21.366 23.7465 20.6232 24.2561C19.7982 24.8222 18.7137 24.2656 18.407 23.1187C18.3338 22.8452 18.2346 22.6213 18.1866 22.6213C18.1386 22.6213 18.0992 23.1667 18.0992 23.8333C18.0992 25 18.1822 25.2712 18.4128 24.8591C18.5103 24.6848 18.5651 24.6847 19.2755 24.8562C20.4122 25.1305 21.3015 24.9149 21.976 24.2015C22.3673 23.7875 22.507 23.3896 22.504 22.6967C22.5013 22.0462 22.2268 21.3655 21.8143 20.9857L21.5338 20.7276L21.4968 22.0524Z" fill="#9E252F"/>
<defs>
<filter id="filter0_dd_35_71" x="25.2484" y="14.7986" width="4.75993" height="5.62037" filterUnits="userSpaceOnUse" color-interpolation-filters="sRGB">
<feFlood flood-opacity="0" result="BackgroundImageFix"/>
<feColorMatrix in="SourceAlpha" type="matrix" values="0 0 0 0 0 0 0 0 0 0 0 0 0 0 0 0 0 0 127 0" result="hardAlpha"/>
<feOffset dx="0.110185" dy="0.22037"/>
<feGaussianBlur stdDeviation="0.22037"/>
<feComposite in2="hardAlpha" operator="out"/>
<feColorMatrix type="matrix" values="0 0 0 0 0 0 0 0 0 0 0 0 0 0 0 0 0 0 0.25 0"/>
<feBlend mode="normal" in2="BackgroundImageFix" result="effect1_dropShadow_35_71"/>
<feColorMatrix in="SourceAlpha" type="matrix" values="0 0 0 0 0 0 0 0 0 0 0 0 0 0 0 0 0 0 127 0" result="hardAlpha"/>
<feOffset dx="-0.110185" dy="0.22037"/>
<feGaussianBlur stdDeviation="0.22037"/>
<feComposite in2="hardAlpha" operator="out"/>
<feColorMatrix type="matrix" values="0 0 0 0 0 0 0 0 0 0 0 0 0 0 0 0 0 0 0.25 0"/>
<feBlend mode="normal" in2="effect1_dropShadow_35_71" result="effect2_dropShadow_35_71"/>
<feBlend mode="normal" in="SourceGraphic" in2="effect2_dropShadow_35_71" result="shape"/>
</filter>
<filter id="filter1_d_35_71" x="10.5939" y="14.7986" width="4.53956" height="5.62037" filterUnits="userSpaceOnUse" color-interpolation-filters="sRGB">
<feFlood flood-opacity="0" result="BackgroundImageFix"/>
<feColorMatrix in="SourceAlpha" type="matrix" values="0 0 0 0 0 0 0 0 0 0 0 0 0 0 0 0 0 0 127 0" result="hardAlpha"/>
<feOffset dx="0.110185" dy="0.22037"/>
<feGaussianBlur stdDeviation="0.22037"/>
<feComposite in2="hardAlpha" operator="out"/>
<feColorMatrix type="matrix" values="0 0 0 0 0 0 0 0 0 0 0 0 0 0 0 0 0 0 0.25 0"/>
<feBlend mode="normal" in2="BackgroundImageFix" result="effect1_dropShadow_35_71"/>
<feBlend mode="normal" in="SourceGraphic" in2="effect1_dropShadow_35_71" result="shape"/>
</filter>
<filter id="filter2_dd_35_71" x="10.3735" y="14.7986" width="4.75993" height="5.84074" filterUnits="userSpaceOnUse" color-interpolation-filters="sRGB">
<feFlood flood-opacity="0" result="BackgroundImageFix"/>
<feColorMatrix in="SourceAlpha" type="matrix" values="0 0 0 0 0 0 0 0 0 0 0 0 0 0 0 0 0 0 127 0" result="hardAlpha"/>
<feOffset dx="0.110185" dy="0.44074"/>
<feGaussianBlur stdDeviation="0.22037"/>
<feComposite in2="hardAlpha" operator="out"/>
<feColorMatrix type="matrix" values="0 0 0 0 0 0 0 0 0 0 0 0 0 0 0 0 0 0 0.25 0"/>
<feBlend mode="normal" in2="BackgroundImageFix" result="effect1_dropShadow_35_71"/>
<feColorMatrix in="SourceAlpha" type="matrix" values="0 0 0 0 0 0 0 0 0 0 0 0 0 0 0 0 0 0 127 0" result="hardAlpha"/>
<feOffset dx="-0.110185" dy="0.22037"/>
<feGaussianBlur stdDeviation="0.22037"/>
<feComposite in2="hardAlpha" operator="out"/>
<feColorMatrix type="matrix" values="0 0 0 0 0 0 0 0 0 0 0 0 0 0 0 0 0 0 0.25 0"/>
<feBlend mode="normal" in2="effect1_dropShadow_35_71" result="effect2_dropShadow_35_71"/>
<feBlend mode="normal" in="SourceGraphic" in2="effect2_dropShadow_35_71" result="shape"/>
</filter>
</defs>
</svg>
