<svg width="246" height="203" viewBox="0 0 246 203" fill="none" xmlns="http://www.w3.org/2000/svg">
<path fill-rule="evenodd" clip-rule="evenodd" d="M183.78 194.639C182.21 195.111 194.191 195.576 206.221 195.51C213.009 195.473 215.446 195.347 213.682 195.126C209.914 194.653 185.077 194.248 183.78 194.639Z" fill="#FEF5E3"/>
<path fill-rule="evenodd" clip-rule="evenodd" d="M9.74294 193.976C8.17361 194.448 20.1546 194.914 32.1846 194.847C38.9722 194.81 41.4089 194.685 39.6453 194.463C35.8776 193.991 11.0399 193.585 9.74294 193.976Z" fill="#FEF5E3"/>
<path d="M30.9809 134.782V140.414H30.009L27.0362 135.468H17.9461V167.541L20.0042 168.799V169.199C17.2601 169.199 14.5159 169.199 11.7717 169.199V168.799L13.8299 167.541V135.468H4.76837L1.79552 140.414H0.795044V134.782C10.857 134.782 20.919 134.782 30.9809 134.782ZM43.0152 169.199V164.311C40.1567 167.569 37.2601 169.199 34.3254 169.199C32.0576 169.18 30.3425 168.77 29.1801 167.97C28.0366 167.15 27.2553 166.016 26.8361 164.568C26.4168 163.12 26.1786 161.414 26.1214 159.451V146.073L24.0633 144.844V144.416C26.1214 144.416 28.1796 144.416 30.2377 144.416V159.623C30.2377 161.948 30.6569 163.701 31.4954 164.882C32.3339 166.045 33.4106 166.721 34.7256 166.912C36.0595 167.084 37.4602 166.845 38.9276 166.197C40.3949 165.549 41.7575 164.558 43.0152 163.225V146.073L40.9571 144.844V144.416C43.0152 144.416 45.0734 144.416 47.1315 144.416V167.541L49.1896 168.799V169.199C47.1315 169.199 45.0734 169.199 43.0152 169.199ZM62.8247 150.733C62.8819 148.808 62.3674 147.388 61.2811 146.474C60.1949 145.559 58.737 145.102 56.9076 145.102C55.2687 145.216 53.7061 146.045 52.2196 147.588C50.7523 149.113 49.6565 150.666 48.9324 152.248H48.5322L48.5893 146.045C48.9133 145.835 49.7423 145.521 51.0762 145.102C52.4293 144.682 54.3731 144.454 56.9076 144.416C57.9557 144.416 59.1849 144.549 60.5951 144.816C62.0053 145.063 63.3011 145.521 64.4827 146.188C65.6642 146.836 66.4169 147.75 66.7409 148.932C66.8933 149.523 66.9505 150.161 66.9124 150.847V158.737C66.9124 158.737 65.5403 160.109 62.7961 162.853V155.021C58.7752 155.249 55.8118 156.021 53.9062 157.336C52.0005 158.632 50.9524 160.08 50.7618 161.681C50.5712 163.263 51.0095 164.616 52.0767 165.74C53.1439 166.864 54.6208 167.369 56.5074 167.255C58.4131 167.122 60.5093 165.988 62.7961 163.853C62.7961 163.853 64.1682 162.481 66.9124 159.737C68.7799 157.831 70.6094 155.897 72.4007 153.934V146.073L70.3426 144.844V144.416C72.4007 144.416 74.4589 144.416 76.517 144.416V149.304C79.3945 146.045 82.3007 144.416 85.2354 144.416C87.5032 144.435 89.2088 144.854 90.3522 145.673C91.5146 146.474 92.3055 147.598 92.7247 149.046C93.144 150.495 93.3822 152.2 93.4394 154.163V167.541L95.4975 168.799V169.199C92.7533 169.199 90.0091 169.199 87.265 169.199V168.799L89.3231 167.541V153.992C89.285 150.923 88.5608 148.846 87.1506 147.76C85.7404 146.674 84.0444 146.397 82.0625 146.931C80.0996 147.465 78.2511 148.618 76.517 150.39C76.517 150.39 75.1449 151.905 72.4007 154.935C70.6094 156.898 68.7799 158.822 66.9124 160.709V167.541L68.9705 168.799V169.199C67.103 169.199 65.2354 169.199 63.3678 169.199L62.7961 168.656V164.911C61.5765 166.016 60.1091 166.998 58.394 167.855C56.6789 168.713 54.9257 169.161 53.1344 169.199C50.981 169.142 49.2944 168.408 48.0748 166.998C46.8552 165.569 46.4264 163.777 46.7885 161.624C47.2458 159.566 48.3988 158.022 50.2473 156.993C52.0958 155.964 54.173 155.278 56.4788 154.935C58.8037 154.573 60.9095 154.373 62.7961 154.335L62.8247 150.733ZM76.517 151.39V167.541L78.5751 168.799V169.199C75.8309 169.199 73.0868 169.199 70.3426 169.199V168.799L72.4007 167.541V155.964C72.4007 155.964 73.7728 154.439 76.517 151.39ZM107.532 144.416V167.541L109.59 168.799V169.199C106.846 169.199 104.102 169.199 101.357 169.199V168.799L103.416 167.541V146.073L101.357 144.844V144.416C103.416 144.416 105.474 144.416 107.532 144.416ZM105.474 136.526C106.255 136.526 106.922 136.802 107.475 137.355C108.027 137.889 108.304 138.546 108.304 139.327C108.304 140.109 108.027 140.776 107.475 141.328C106.922 141.881 106.255 142.157 105.474 142.157C104.692 142.157 104.025 141.881 103.473 141.328C102.92 140.776 102.644 140.109 102.644 139.327C102.644 138.546 102.92 137.889 103.473 137.355C104.025 136.802 104.692 136.526 105.474 136.526ZM143.549 169.199C141.586 169.199 139.814 169.027 138.232 168.684C136.67 168.322 135.431 167.97 134.516 167.627C133.601 167.265 133.144 167.084 133.144 167.084L132.687 158.908H133.087C133.811 160.204 134.659 161.576 135.631 163.024C136.622 164.454 137.765 165.683 139.061 166.712C140.376 167.741 141.872 168.284 143.549 168.341C145.836 168.341 147.884 167.884 149.695 166.969C151.505 166.035 152.725 164.816 153.354 163.31C153.983 161.805 153.697 160.195 152.496 158.479C151.296 156.745 148.837 155.078 145.121 153.477C143.616 152.867 142.158 152.267 140.748 151.676C139.338 151.066 138.08 150.361 136.974 149.561C135.869 148.76 135.031 147.76 134.459 146.559C133.887 145.359 133.678 143.853 133.83 142.043C134.078 139.642 135.116 137.841 136.946 136.64C138.775 135.44 141.31 134.82 144.55 134.782C146.627 134.763 148.532 134.982 150.267 135.44C152.001 135.897 153.811 136.45 155.698 137.098L155.469 144.13H155.069C154.688 143.272 154.03 142.167 153.096 140.814C152.182 139.461 151.01 138.241 149.581 137.155C148.151 136.069 146.484 135.516 144.578 135.497C142.977 135.497 141.472 135.745 140.062 136.24C138.671 136.736 137.622 137.536 136.917 138.641C136.212 139.747 136.117 141.214 136.631 143.043C137.089 144.435 137.842 145.511 138.89 146.274C139.957 147.036 141.176 147.665 142.549 148.16C143.94 148.637 145.321 149.142 146.693 149.675C148.275 150.285 149.819 150.942 151.324 151.648C152.83 152.334 154.116 153.22 155.183 154.306C156.269 155.392 156.965 156.841 157.27 158.651C157.537 160.69 157.289 162.396 156.527 163.768C155.783 165.14 154.707 166.226 153.297 167.026C151.886 167.808 150.314 168.37 148.58 168.713C146.846 169.037 145.169 169.199 143.549 169.199ZM171.534 144.416C173.859 144.416 175.879 145.025 177.594 146.245C179.309 147.446 180.624 149.018 181.539 150.962C182.472 152.905 182.939 154.973 182.939 157.164H163.959C164.016 159.28 164.369 161.195 165.016 162.91C165.683 164.606 166.56 165.969 167.646 166.998C168.733 168.008 169.933 168.513 171.248 168.513C173.459 168.513 175.44 167.865 177.194 166.569C178.947 165.273 180.252 163.577 181.11 161.481L181.939 161.91C181.024 164.082 179.642 165.845 177.794 167.198C175.945 168.532 173.859 169.199 171.534 169.199C169.438 169.199 167.522 168.646 165.788 167.541C164.073 166.417 162.701 164.921 161.672 163.053C160.643 161.166 160.128 159.089 160.128 156.821C160.128 154.535 160.643 152.457 161.672 150.59C162.701 148.703 164.073 147.207 165.788 146.102C167.522 144.978 169.438 144.416 171.534 144.416ZM178.566 156.478C178.509 154.344 178.147 152.429 177.48 150.733C176.832 149.018 175.965 147.655 174.878 146.645C173.792 145.616 172.582 145.102 171.248 145.102C169.933 145.102 168.733 145.616 167.646 146.645C166.56 147.655 165.683 149.018 165.016 150.733C164.369 152.429 164.016 154.344 163.959 156.478H178.566ZM190.772 134.782V167.541L192.83 168.799V169.199C190.086 169.199 187.341 169.199 184.597 169.199V168.799L186.655 167.541V136.412L184.597 135.183V134.782C186.655 134.782 188.714 134.782 190.772 134.782ZM206.808 150.733C206.865 148.808 206.351 147.388 205.264 146.474C204.178 145.559 202.72 145.102 200.891 145.102C199.252 145.216 197.689 146.045 196.203 147.588C194.735 149.113 193.64 150.666 192.916 152.248H192.515L192.572 146.045C192.896 145.835 193.725 145.521 195.059 145.102C196.412 144.682 198.356 144.454 200.891 144.416C201.939 144.416 203.168 144.549 204.578 144.816C205.988 145.063 207.284 145.521 208.466 146.188C209.647 146.836 210.4 147.75 210.724 148.932C210.876 149.523 210.934 150.161 210.896 150.847V167.541L212.954 168.799V169.199C211.086 169.199 209.219 169.199 207.351 169.199L206.779 168.656V164.911C205.56 166.016 204.092 166.998 202.377 167.855C200.662 168.713 198.909 169.161 197.118 169.199C194.964 169.142 193.278 168.408 192.058 166.998C190.838 165.569 190.41 163.777 190.772 161.624C191.229 159.566 192.382 158.022 194.23 156.993C196.079 155.964 198.156 155.278 200.462 154.935C202.787 154.573 204.893 154.373 206.779 154.335L206.808 150.733ZM206.779 163.882V155.021C202.796 155.249 199.852 156.012 197.946 157.307C196.041 158.603 194.974 160.052 194.745 161.652C194.516 163.234 194.916 164.587 195.946 165.711C196.994 166.817 198.471 167.322 200.376 167.226C202.301 167.112 204.435 165.997 206.779 163.882ZM237.565 169.199V164.311C234.707 167.569 231.81 169.199 228.876 169.199C226.608 169.18 224.893 168.77 223.73 167.97C222.587 167.15 221.806 166.016 221.386 164.568C220.967 163.12 220.729 161.414 220.672 159.451V146.073L218.614 144.844V144.416C220.672 144.416 222.73 144.416 224.788 144.416V159.623C224.788 161.948 225.207 163.701 226.046 164.882C226.884 166.045 227.961 166.721 229.276 166.912C230.61 167.084 232.01 166.845 233.478 166.197C234.945 165.549 236.308 164.558 237.565 163.225V146.073L235.507 144.844V144.416C237.565 144.416 239.624 144.416 241.682 144.416V167.541L243.74 168.799V169.199C241.682 169.199 239.624 169.199 237.565 169.199Z" fill="#FEF5E3"/>
<path d="M71.5258 1.97443C68.6617 5.20803 67.3683 8.16446 68.015 10.1046C68.3845 11.1209 68.9389 11.9524 69.3084 11.9524C70.6943 11.9524 72.9116 8.71879 73.5583 5.94713C73.9279 4.37653 74.3898 2.43637 74.667 1.51248C75.2213 -0.704843 73.7431 -0.427677 71.5258 1.97443Z" fill="#FEF5E3"/>
<path d="M139.893 1.51248C140.171 2.43637 140.632 4.37653 141.002 5.94713C141.649 8.71879 143.866 11.9524 145.252 11.9524C146.638 11.9524 147.1 8.34924 145.991 6.2243C143.589 1.51248 138.969 -1.99828 139.893 1.51248Z" fill="#FEF5E3"/>
<path d="M81.5042 3.91353C80.3031 4.46786 78.7325 5.94608 77.9934 6.96235C76.7924 8.90251 76.7924 8.90251 80.5803 8.25579C82.7052 7.88624 85.3845 6.50041 86.7703 5.11458L89.2648 2.71248H86.4932C84.9226 2.71248 82.7052 3.26681 81.5042 3.91353Z" fill="#FEF5E3"/>
<path d="M127.791 5.11449C129.084 6.50031 131.856 7.88614 133.889 8.2557C137.399 8.90242 137.584 8.81003 136.845 7.23942C135.367 4.56015 132.041 2.71238 128.622 2.71238H125.296L127.791 5.11449Z" fill="#FEF5E3"/>
<path d="M56.097 13.3378C53.8797 16.6638 53.7873 22.0224 55.8198 23.5006C56.6513 24.0549 57.2057 24.8864 56.9285 25.1636C56.6513 25.5331 56.7437 25.6255 57.1133 25.3484C58.5915 24.1473 59.7001 14.4465 58.5915 12.414C57.76 11.1205 57.4828 11.2129 56.097 13.3378Z" fill="#FEF5E3"/>
<path d="M155.784 12.9677C155.415 13.984 155.322 16.7557 155.507 19.1578C155.784 23.0381 155.599 23.5 153.936 23.2229C150.795 22.7609 145.067 23.0381 144.051 23.5924C142.388 24.6087 147.192 26.6413 151.257 26.7336C154.306 26.7336 155.23 26.3641 155.599 24.8859C155.877 23.6848 156.523 23.2229 157.54 23.5924C158.556 23.962 159.295 23.4077 159.942 21.6523C160.681 19.7121 160.496 18.3263 159.11 15.0927C157.078 10.4733 156.616 10.1961 155.784 12.9677Z" fill="#FEF5E3"/>
<path d="M71.4334 13.7075C68.2922 15.6477 77.1615 18.4194 81.4113 16.7564L83.7211 15.9249L80.7646 14.3543C77.6234 12.7837 73.3735 12.4141 71.4334 13.7075Z" fill="#FEF5E3"/>
<path d="M133.611 14.4466L130.932 15.9249L133.149 16.7564C137.399 18.4194 146.268 15.6477 143.127 13.7075C141.187 12.4141 136.66 12.7837 133.611 14.4466Z" fill="#FEF5E3"/>
<path d="M65.6131 16.2945C64.412 17.7727 64.5044 17.8651 65.9826 16.664C66.8141 16.0173 67.5532 15.2782 67.5532 15.0934C67.5532 14.3543 66.8141 14.8163 65.6131 16.2945Z" fill="#FEF5E3"/>
<path d="M148.393 16.5712C149.317 17.5874 150.241 18.4189 150.518 18.4189C150.795 18.4189 150.241 17.5874 149.317 16.5712C148.393 15.5549 147.469 14.7234 147.192 14.7234C146.915 14.7234 147.469 15.5549 148.393 16.5712Z" fill="#FEF5E3"/>
<path d="M61.7328 23.3153C57.6677 24.6087 58.5916 26.7336 63.211 26.7336C67.4609 26.6413 72.727 24.4239 70.3249 23.6848C67.1837 22.5762 64.1349 22.4838 61.7328 23.3153Z" fill="#FEF5E3"/>
<path d="M45.0107 26.9188C44.0868 30.6143 44.4564 34.587 45.9346 36.7119C47.7824 39.3912 49.0758 38.5597 49.0758 34.4946C49.0758 31.5382 46.9509 24.8862 46.027 24.8862C45.7498 24.8862 45.3803 25.8101 45.0107 26.9188Z" fill="#FEF5E3"/>
<path d="M166.963 27.8426C165.023 32.2772 165.023 37.8206 166.871 37.8206C169.642 37.8206 171.121 30.799 169.18 26.272C168.534 24.609 168.257 24.7938 166.963 27.8426Z" fill="#FEF5E3"/>
<path d="M54.157 35.2338C50.1843 37.4511 49.9071 39.6685 53.6951 39.6685C55.4505 39.6685 57.483 38.6522 59.4232 36.8968L62.472 34.2175H59.2384C57.483 34.2175 55.1733 34.6795 54.157 35.2338Z" fill="#FEF5E3"/>
<path d="M155.138 36.8963C159.11 40.5919 165.3 40.869 162.898 37.2659C161.79 35.5105 158.279 34.1247 155.138 34.1247L152.089 34.2171L155.138 36.8963Z" fill="#FEF5E3"/>
<path d="M37.9887 46.0431C37.9887 49.831 40.8528 54.4504 43.1625 54.4504C45.3798 54.4504 44.6407 50.3853 41.5919 46.3202C40.0213 44.1953 38.543 42.4399 38.3583 42.4399C38.1735 42.4399 37.9887 44.0105 37.9887 46.0431Z" fill="#FEF5E3"/>
<path d="M173.153 46.1358C169.827 50.5705 169.088 54.8204 171.583 54.266C174.354 53.7117 176.756 49.4618 176.387 45.5815L176.11 41.9784L173.153 46.1358Z" fill="#FEF5E3"/>
<path d="M50.7387 48.9999C48.1518 50.2934 47.2279 51.402 47.2279 53.065C47.2279 55.2824 47.3203 55.3748 50.1843 54.1737C53.4179 52.8803 57.6678 47.0598 55.3581 47.0598C54.7114 47.1522 52.5864 47.9837 50.7387 48.9999Z" fill="#FEF5E3"/>
<path d="M159.665 50.0162C160.589 51.5868 162.714 53.527 164.377 54.1737C167.241 55.3748 167.333 55.2824 167.333 53.065C167.333 51.3097 166.409 50.3858 163.638 48.9076C158.556 46.3207 157.632 46.5055 159.665 50.0162Z" fill="#FEF5E3"/>
<path d="M44.7334 60.4552C44.7334 62.4877 44.9182 63.2268 45.103 62.0258C45.2878 60.9171 45.2878 59.2541 45.103 58.3302C44.8258 57.4987 44.6411 58.4226 44.7334 60.4552Z" fill="#FEF5E3"/>
<path d="M169.365 60.4558C169.365 61.934 169.55 62.4883 169.827 61.5644C170.012 60.7329 170.012 59.4395 169.827 58.7928C169.55 58.2384 169.365 58.8852 169.365 60.4558Z" fill="#FEF5E3"/>
<path d="M35.6792 62.9505C37.065 67.3851 39.0976 70.2492 41.3149 71.1731C42.6083 71.635 44.0866 71.8198 44.5485 71.5426C46.0267 70.5264 42.7931 65.9069 38.9128 63.32C35.0325 60.8256 35.0325 60.8256 35.6792 62.9505Z" fill="#FEF5E3"/>
<path d="M50.5539 63.6897C48.429 65.5375 47.2279 67.4776 47.2279 68.8635C47.2279 71.4503 47.8746 71.6351 50.6463 69.695C52.5864 68.3091 55.2657 62.2115 54.3418 61.2876C54.0647 61.0104 52.4017 62.1191 50.5539 63.6897Z" fill="#FEF5E3"/>
<path d="M159.942 61.8423C159.942 64.0596 162.713 69.141 164.376 70.0649C167.056 71.4507 167.333 71.3583 167.333 68.8638C167.333 67.478 166.132 65.5378 164.099 63.7825C160.496 60.6413 159.942 60.3641 159.942 61.8423Z" fill="#FEF5E3"/>
<path d="M175.094 63.6897C171.675 66.0918 168.534 70.7113 169.55 71.8199C170.474 72.6514 175.74 69.8798 176.664 68.032C177.588 66.369 179.436 60.8257 179.066 60.9181C178.974 61.0105 177.219 62.2115 175.094 63.6897Z" fill="#FEF5E3"/>
<path d="M54.5265 76.2541C52.032 79.1182 51.0158 81.7975 51.5701 83.83C51.8473 84.9387 52.4016 85.8625 52.8635 85.8625C54.6189 85.8625 56.5591 81.2431 56.2819 78.0095C56.0047 74.6835 55.9124 74.6835 54.5265 76.2541Z" fill="#FEF5E3"/>
<path d="M158.094 78.0095C158.094 81.7051 160.127 85.8625 161.882 85.8625C163.73 85.8625 162.714 79.4877 160.404 76.9009L158.187 74.314L158.094 78.0095Z" fill="#FEF5E3"/>
<path d="M38.8204 81.1512C41.4073 85.863 49.9994 89.9281 49.9994 86.5097C49.9994 84.5695 47.1354 82.3522 42.7007 80.7816C37.7117 79.0262 37.7117 79.0262 38.8204 81.1512Z" fill="#FEF5E3"/>
<path d="M171.583 80.8739C165.208 83.1837 162.067 87.7107 166.779 87.7107C169.181 87.7107 174.17 84.0152 175.74 81.1511C176.757 79.1186 176.387 79.1186 171.583 80.8739Z" fill="#FEF5E3"/>
<path d="M61.271 89.281C59.3309 94.27 59.2385 95.6558 60.5319 97.5036C61.6406 98.8894 62.1025 99.0742 63.1188 98.0579C64.5046 96.6721 64.5046 90.5745 63.2112 88.2647C62.3797 86.7865 62.1949 86.9713 61.271 89.281Z" fill="#FEF5E3"/>
<path d="M150.703 90.1127C148.947 95.9331 152.273 102.123 154.306 96.7646C155.045 94.6397 154.398 91.1289 152.735 88.0801C151.904 86.6943 151.627 86.9714 150.703 90.1127Z" fill="#FEF5E3"/>
<path d="M56.4667 95.4711C56.4667 95.6559 57.2058 96.395 58.1297 97.0417C59.5155 98.2428 59.6079 98.1504 58.4068 96.6722C57.2058 95.1939 56.4667 94.732 56.4667 95.4711Z" fill="#FEF5E3"/>
<path d="M156.154 96.6722C154.953 98.1504 155.045 98.2428 156.524 97.0417C158.002 95.8407 158.464 95.1016 157.725 95.1016C157.54 95.1016 156.801 95.8407 156.154 96.6722Z" fill="#FEF5E3"/>
<path d="M48.798 99.167C52.0316 101.939 56.4662 103.14 58.6836 101.846C61.4552 100.276 57.2053 97.5964 51.1077 97.1345L45.8416 96.6725L48.798 99.167Z" fill="#FEF5E3"/>
<path d="M157.448 98.4271C153.937 100.183 153.66 101.199 156.247 102.03C159.111 102.954 163.176 101.753 165.485 99.1662L167.61 96.9489H164.007C162.067 96.9489 159.018 97.688 157.448 98.4271Z" fill="#FEF5E3"/>
<path d="M71.2487 101.661C71.2487 106.004 72.5422 108.96 74.4823 108.96C76.4225 108.96 76.2377 103.879 74.2975 100.553C72.0802 96.8571 71.2487 97.2266 71.2487 101.661Z" fill="#FEF5E3"/>
<path d="M140.263 100.553C138.323 103.879 138.138 108.96 140.078 108.96C142.019 108.96 143.312 106.004 143.312 101.661C143.312 97.2266 142.481 96.8571 140.263 100.553Z" fill="#FEF5E3"/>
<path d="M148.3 104.525L146.545 106.65L148.67 104.894C150.61 103.231 151.165 102.492 150.425 102.492C150.241 102.492 149.317 103.416 148.3 104.525Z" fill="#FEF5E3"/>
<path d="M65.7056 104.71C65.7056 104.895 66.4447 105.634 67.3686 106.28C68.7544 107.482 68.8468 107.389 67.6457 105.911C66.4447 104.433 65.7056 103.971 65.7056 104.71Z" fill="#FEF5E3"/>
<path d="M83.2593 106.558C83.2593 110.439 86.5853 115.427 89.1722 115.427C90.6504 115.427 89.4494 110.623 87.3244 108.129C84.8299 105.08 83.2593 104.433 83.2593 106.558Z" fill="#FEF5E3"/>
<path d="M127.236 108.129C125.111 110.623 123.91 115.427 125.389 115.427C127.144 115.427 129.361 113.21 130.285 110.716C132.41 104.71 131.024 103.509 127.236 108.129Z" fill="#FEF5E3"/>
<path d="M61.548 110.807L58.7763 111.454L62.1947 112.932C66.4446 114.872 69.401 114.872 71.8031 113.117C73.2813 111.916 73.3737 111.639 72.1727 110.807C70.602 109.791 65.7055 109.791 61.548 110.807Z" fill="#FEF5E3"/>
<path d="M142.018 110.992C140.355 111.916 140.355 112.008 142.48 113.21C145.437 114.873 148.208 114.78 152.366 112.932L155.784 111.454L153.013 110.807C148.763 109.791 143.958 109.791 142.018 110.992Z" fill="#FEF5E3"/>
<path d="M79.1942 119.308C75.4986 120.971 75.0367 121.433 76.4225 121.987C80.9495 123.743 88.8026 121.618 88.8026 118.661C88.8026 116.629 84.5527 116.998 79.1942 119.308Z" fill="#FEF5E3"/>
<path d="M93.8841 118.568C95.4547 119.215 97.8568 121.155 99.2426 122.726L101.737 125.775V122.356C101.737 118.753 101.46 118.661 95.2699 117.829C91.1124 117.275 91.1124 117.275 93.8841 118.568Z" fill="#FEF5E3"/>
<path d="M116.981 118.106C113.47 118.661 113.285 118.845 113.008 122.356L112.731 126.052L114.764 123.372C115.872 121.987 118.09 119.954 119.66 119.03C121.231 118.106 122.155 117.367 121.6 117.367C121.138 117.46 119.014 117.829 116.981 118.106Z" fill="#FEF5E3"/>
<path d="M125.758 118.661C125.758 121.618 133.611 123.743 138.138 121.987C139.524 121.433 139.062 120.971 135.182 119.308C129.731 116.906 125.758 116.629 125.758 118.661Z" fill="#FEF5E3"/>
<path d="M77.1764 25.523H137.727L138.303 43.7353H135.739C134.483 38.0134 132.878 34.2977 130.924 32.5881C129.005 30.8436 124.94 29.9714 118.73 29.9714H112.764V84.8178C112.764 88.9697 113.409 91.5515 114.7 92.5633C115.991 93.5402 118.817 94.1857 123.178 94.4997V96.436H91.9347V94.4997C96.4703 94.1508 99.2964 93.4006 100.413 92.2493C101.529 91.0979 102.088 88.2021 102.088 83.5618V29.9714H96.1214C90.1902 29.9714 86.143 30.8262 83.9798 32.5358C81.8516 34.2454 80.2467 37.9786 79.1651 43.7353H76.5484L77.1764 25.523Z" fill="#FEF5E3"/>
<g filter="url(#filter0_dd_23_78)">
<path fill-rule="evenodd" clip-rule="evenodd" d="M138.83 46.8379C139.583 48.59 140.503 50.7325 140.873 51.5991C141.243 52.4657 142.072 54.4079 142.715 55.915C143.359 57.4222 143.966 58.7245 144.066 58.8092C144.218 58.9391 144.156 59.0758 143.668 59.6887C142.204 61.5261 139.982 62.4232 136.895 62.4232C133.814 62.4232 131.575 61.5116 130.095 59.6533C129.631 59.0721 129.573 58.9387 129.723 58.8092C129.822 58.7245 130.348 57.6072 130.893 56.3261C131.438 55.045 132.172 53.3186 132.525 52.4897C134.878 46.9579 136.352 43.6523 136.467 43.6523C136.556 43.6523 136.563 43.7319 136.487 43.8921C136.362 44.1568 134.827 47.7407 133.92 49.8865C133.601 50.64 132.623 52.9138 131.748 54.9394C130.872 56.9648 130.156 58.6768 130.156 58.7437C130.156 58.8123 131.596 58.8493 133.465 58.8288L136.774 58.7923V51.2223C136.774 45.2576 136.806 43.6522 136.926 43.6523C137.045 43.6523 137.077 45.2646 137.077 51.2566V58.8608H140.364C143.576 58.8608 143.649 58.8547 143.575 58.5917C143.534 58.4436 142.813 56.7327 141.974 54.7896C140.49 51.3504 139.802 49.7429 138.283 46.162C137.878 45.2063 137.467 44.2507 137.37 44.0383C137.255 43.7874 137.239 43.6523 137.326 43.6523C137.4 43.6523 138.076 45.0858 138.83 46.8379Z" fill="#FEF5E3"/>
</g>
<g filter="url(#filter1_d_23_78)">
<g filter="url(#filter2_dd_23_78)">
<path fill-rule="evenodd" clip-rule="evenodd" d="M79.8981 46.8379C80.6516 48.59 81.571 50.7325 81.941 51.5991C82.3111 52.4657 83.1403 54.4079 83.7837 55.915C84.4271 57.4222 85.0347 58.7245 85.1341 58.8092C85.2864 58.9391 85.2246 59.0758 84.7364 59.6887C83.272 61.5261 81.0505 62.4232 77.9637 62.4232C74.882 62.4232 72.6438 61.5116 71.1631 59.6533C70.6999 59.0721 70.6413 58.9387 70.7917 58.8092C70.8901 58.7245 71.4164 57.6072 71.9612 56.3261C72.5062 55.045 73.2405 53.3186 73.5932 52.4897C75.946 46.9579 77.4206 43.6523 77.5354 43.6523C77.6245 43.6523 77.6311 43.7319 77.5556 43.8921C77.4308 44.1568 75.8956 47.7407 74.9879 49.8865C74.6692 50.64 73.6919 52.9138 72.8164 54.9394C71.9407 56.9648 71.2243 58.6768 71.2243 58.7437C71.2243 58.8123 72.664 58.8493 74.5333 58.8288L77.8423 58.7923V51.2223C77.8423 45.2576 77.8745 43.6522 77.9941 43.6523C78.1137 43.6523 78.1459 45.2646 78.1459 51.2566V58.8608H81.4327C84.6446 58.8608 84.7179 58.8547 84.6438 58.5917C84.6022 58.4436 83.8818 56.7327 83.0429 54.7896C81.5582 51.3504 80.8705 49.7429 79.3518 46.162C78.9465 45.2063 78.5353 44.2507 78.438 44.0383C78.3231 43.7874 78.3078 43.6523 78.3946 43.6523C78.468 43.6523 79.1447 45.0858 79.8981 46.8379Z" fill="#FEF5E3"/>
</g>
</g>
<path fill-rule="evenodd" clip-rule="evenodd" d="M122.683 31.1023C121.858 32.9777 120.329 33.1169 116.479 31.6676C114.856 31.0565 113.335 30.5567 113.1 30.5567C112.866 30.5567 112.674 31.2407 112.674 32.0771C112.674 33.4618 112.867 33.6957 114.842 34.6963C119.043 36.8252 121.538 40.3755 122.745 45.9444C123.078 47.4814 123.516 48.4544 123.875 48.4544C124.346 48.4544 124.46 46.6254 124.46 39.069C124.46 31.5877 124.343 29.6836 123.884 29.6836C123.567 29.6836 123.027 30.3218 122.683 31.1023ZM99.3971 34.5601C94.4582 40.3301 95.1737 48.9311 101.08 54.7929C103.844 57.5356 106.494 59.2699 114.147 63.3454C118.404 65.6123 121.063 67.3641 123.096 69.2425C132.439 77.8736 133.666 90.8385 125.922 99.1173C122.4 102.883 118.285 104.831 112.119 105.651C100.013 107.263 89.5516 99.7088 87.0769 87.5706C85.8843 81.7203 87.4187 75.8668 91.3021 71.4552C93.2874 69.1997 97.3288 66.983 100.256 66.5443C102.131 66.2631 102.197 66.2007 102.197 64.7143V63.1751L99.5159 63.4183C91.9372 64.1054 83.8549 71.3719 81.6783 79.4551C80.945 82.1773 81.0624 87.7662 81.9149 90.7172C84.8676 100.942 93.2119 107.962 104.347 109.59C110.902 110.549 117.268 109.527 123.383 106.535C129.216 103.68 133.96 98.2111 135.816 92.2022C137.191 87.7527 137.03 81.1327 135.436 76.5539C132.892 69.2468 127.695 63.413 119.392 58.5444C111.03 53.6408 107.862 51.4189 105.479 48.7849C102.33 45.3049 101.76 43.4252 102.042 37.432C102.298 31.9566 101.95 31.5777 99.3971 34.5601ZM112.602 71.5194C112.44 77.3344 112.084 78.2315 109.141 80.2505C105.873 82.4934 101.576 80.288 100.361 75.7442C100.071 74.6602 99.6778 73.7732 99.4875 73.7732C99.2972 73.7732 99.1413 75.934 99.1413 78.5751C99.1413 83.1975 99.47 84.2722 100.384 82.6396C100.77 81.949 100.987 81.9486 103.802 82.6278C108.305 83.7148 111.829 82.8605 114.501 80.0339C116.051 78.3939 116.605 76.8171 116.593 74.0722C116.582 71.495 115.495 68.7981 113.86 67.2934L112.749 66.2706L112.602 71.5194Z" fill="#FEF5E3"/>
<path d="M40.6533 200.78L49.5935 181.223H51.633L60.5731 200.78H58.394L50.1802 182.424H51.0183L42.8046 200.78H40.6533ZM44.1735 195.555L44.7882 193.879H56.1589L56.7736 195.555H44.1735ZM69.0918 200.919C67.6949 200.919 66.4377 200.603 65.3202 199.969C64.2213 199.336 63.3552 198.461 62.722 197.343C62.0887 196.207 61.7721 194.903 61.7721 193.432C61.7721 191.942 62.0887 190.638 62.722 189.521C63.3552 188.403 64.2213 187.537 65.3202 186.922C66.4377 186.289 67.6949 185.972 69.0918 185.972C70.377 185.972 71.5224 186.261 72.5282 186.838C73.5526 187.416 74.3628 188.263 74.9588 189.381C75.5734 190.48 75.8807 191.83 75.8807 193.432C75.8807 195.015 75.5827 196.365 74.9867 197.483C74.3907 198.6 73.5805 199.457 72.5561 200.053C71.5504 200.631 70.3956 200.919 69.0918 200.919ZM69.2315 199.159C70.2745 199.159 71.2058 198.926 72.0253 198.461C72.8634 197.976 73.5153 197.306 73.981 196.449C74.4652 195.574 74.7073 194.568 74.7073 193.432C74.7073 192.277 74.4652 191.271 73.981 190.415C73.5153 189.558 72.8634 188.897 72.0253 188.431C71.2058 187.947 70.2745 187.705 69.2315 187.705C68.2071 187.705 67.2852 187.947 66.4656 188.431C65.6461 188.897 64.9942 189.558 64.51 190.415C64.0257 191.271 63.7836 192.277 63.7836 193.432C63.7836 194.568 64.0257 195.574 64.51 196.449C64.9942 197.306 65.6461 197.976 66.4656 198.461C67.2852 198.926 68.2071 199.159 69.2315 199.159ZM74.7632 200.78V196.365L74.9588 193.404L74.6794 190.442V180.05H76.663V200.78H74.7632ZM85.9589 200.78L79.4494 186.112H81.5168L87.4955 199.718H86.5177L92.5802 186.112H94.5359L87.9984 200.78H85.9589ZM102.899 200.919C101.483 200.919 100.208 200.603 99.0714 199.969C97.9539 199.317 97.0692 198.433 96.4173 197.315C95.7655 196.179 95.4395 194.885 95.4395 193.432C95.4395 191.96 95.7655 190.666 96.4173 189.548C97.0692 188.431 97.9539 187.556 99.0714 186.922C100.189 186.289 101.465 185.972 102.899 185.972C104.352 185.972 105.637 186.289 106.754 186.922C107.891 187.556 108.775 188.431 109.408 189.548C110.06 190.666 110.386 191.96 110.386 193.432C110.386 194.885 110.06 196.179 109.408 197.315C108.775 198.433 107.891 199.317 106.754 199.969C105.618 200.603 104.333 200.919 102.899 200.919ZM102.899 199.159C103.961 199.159 104.901 198.926 105.721 198.461C106.54 197.976 107.183 197.306 107.648 196.449C108.133 195.574 108.375 194.568 108.375 193.432C108.375 192.277 108.133 191.271 107.648 190.415C107.183 189.558 106.54 188.897 105.721 188.431C104.901 187.947 103.97 187.705 102.927 187.705C101.884 187.705 100.953 187.947 100.133 188.431C99.3136 188.897 98.6617 189.558 98.1774 190.415C97.6932 191.271 97.451 192.277 97.451 193.432C97.451 194.568 97.6932 195.574 98.1774 196.449C98.6617 197.306 99.3136 197.976 100.133 198.461C100.953 198.926 101.875 199.159 102.899 199.159ZM120.527 200.919C119.074 200.919 117.77 200.603 116.615 199.969C115.479 199.317 114.585 198.433 113.933 197.315C113.281 196.179 112.955 194.885 112.955 193.432C112.955 191.96 113.281 190.666 113.933 189.548C114.585 188.431 115.479 187.556 116.615 186.922C117.77 186.289 119.074 185.972 120.527 185.972C121.774 185.972 122.901 186.215 123.907 186.699C124.913 187.183 125.704 187.909 126.282 188.878L124.801 189.884C124.298 189.139 123.674 188.589 122.929 188.235C122.184 187.882 121.374 187.705 120.499 187.705C119.456 187.705 118.515 187.947 117.677 188.431C116.839 188.897 116.177 189.558 115.693 190.415C115.209 191.271 114.967 192.277 114.967 193.432C114.967 194.587 115.209 195.592 115.693 196.449C116.177 197.306 116.839 197.976 117.677 198.461C118.515 198.926 119.456 199.159 120.499 199.159C121.374 199.159 122.184 198.982 122.929 198.628C123.674 198.274 124.298 197.734 124.801 197.008L126.282 198.014C125.704 198.964 124.913 199.69 123.907 200.193C122.901 200.677 121.774 200.919 120.527 200.919ZM139.37 200.78V197.539L139.286 197.008V191.588C139.286 190.34 138.932 189.381 138.225 188.71C137.535 188.04 136.502 187.705 135.123 187.705C134.174 187.705 133.27 187.863 132.413 188.18C131.557 188.496 130.83 188.915 130.234 189.437L129.34 187.956C130.085 187.323 130.979 186.838 132.022 186.503C133.065 186.149 134.164 185.972 135.319 185.972C137.219 185.972 138.681 186.447 139.705 187.397C140.748 188.329 141.27 189.753 141.27 191.672V200.78H139.37ZM134.313 200.919C133.214 200.919 132.255 200.742 131.436 200.388C130.635 200.016 130.02 199.513 129.592 198.88C129.163 198.228 128.949 197.483 128.949 196.645C128.949 195.881 129.126 195.192 129.48 194.577C129.852 193.944 130.448 193.441 131.268 193.069C132.106 192.678 133.224 192.482 134.621 192.482H139.677V193.963H134.676C133.261 193.963 132.274 194.214 131.715 194.717C131.175 195.22 130.905 195.844 130.905 196.589C130.905 197.427 131.231 198.097 131.883 198.6C132.535 199.103 133.447 199.355 134.621 199.355C135.738 199.355 136.697 199.103 137.498 198.6C138.318 198.079 138.914 197.334 139.286 196.365L139.733 197.734C139.361 198.703 138.709 199.476 137.778 200.053C136.865 200.631 135.71 200.919 134.313 200.919ZM152.748 200.919C151.295 200.919 149.991 200.603 148.837 199.969C147.7 199.317 146.806 198.433 146.155 197.315C145.503 196.179 145.177 194.885 145.177 193.432C145.177 191.96 145.503 190.666 146.155 189.548C146.806 188.431 147.7 187.556 148.837 186.922C149.991 186.289 151.295 185.972 152.748 185.972C153.996 185.972 155.123 186.215 156.128 186.699C157.134 187.183 157.926 187.909 158.503 188.878L157.022 189.884C156.52 189.139 155.896 188.589 155.151 188.235C154.406 187.882 153.595 187.705 152.72 187.705C151.677 187.705 150.736 187.947 149.898 188.431C149.06 188.897 148.399 189.558 147.915 190.415C147.43 191.271 147.188 192.277 147.188 193.432C147.188 194.587 147.43 195.592 147.915 196.449C148.399 197.306 149.06 197.976 149.898 198.461C150.736 198.926 151.677 199.159 152.72 199.159C153.595 199.159 154.406 198.982 155.151 198.628C155.896 198.274 156.52 197.734 157.022 197.008L158.503 198.014C157.926 198.964 157.134 199.69 156.128 200.193C155.123 200.677 153.996 200.919 152.748 200.919ZM162.182 200.78V186.112H164.165V200.78H162.182ZM163.187 182.871C162.778 182.871 162.433 182.732 162.154 182.452C161.874 182.173 161.735 181.838 161.735 181.446C161.735 181.055 161.874 180.729 162.154 180.469C162.433 180.189 162.778 180.05 163.187 180.05C163.597 180.05 163.942 180.18 164.221 180.441C164.5 180.701 164.64 181.027 164.64 181.419C164.64 181.828 164.5 182.173 164.221 182.452C163.96 182.732 163.616 182.871 163.187 182.871ZM178.876 200.78V197.539L178.792 197.008V191.588C178.792 190.34 178.438 189.381 177.731 188.71C177.041 188.04 176.008 187.705 174.629 187.705C173.68 187.705 172.776 187.863 171.92 188.18C171.063 188.496 170.336 188.915 169.74 189.437L168.846 187.956C169.591 187.323 170.485 186.838 171.528 186.503C172.571 186.149 173.67 185.972 174.825 185.972C176.725 185.972 178.187 186.447 179.211 187.397C180.254 188.329 180.776 189.753 180.776 191.672V200.78H178.876ZM173.819 200.919C172.72 200.919 171.761 200.742 170.942 200.388C170.141 200.016 169.526 199.513 169.098 198.88C168.669 198.228 168.455 197.483 168.455 196.645C168.455 195.881 168.632 195.192 168.986 194.577C169.359 193.944 169.955 193.441 170.774 193.069C171.612 192.678 172.73 192.482 174.127 192.482H179.183V193.963H174.182C172.767 193.963 171.78 194.214 171.221 194.717C170.681 195.22 170.411 195.844 170.411 196.589C170.411 197.427 170.737 198.097 171.389 198.6C172.041 199.103 172.953 199.355 174.127 199.355C175.244 199.355 176.203 199.103 177.004 198.6C177.824 198.079 178.42 197.334 178.792 196.365L179.239 197.734C178.867 198.703 178.215 199.476 177.284 200.053C176.371 200.631 175.216 200.919 173.819 200.919Z" fill="#FEF5E3"/>
<defs>
<filter id="filter0_dd_23_78" x="127.467" y="42.7793" width="18.8551" height="22.263" filterUnits="userSpaceOnUse" color-interpolation-filters="sRGB">
<feFlood flood-opacity="0" result="BackgroundImageFix"/>
<feColorMatrix in="SourceAlpha" type="matrix" values="0 0 0 0 0 0 0 0 0 0 0 0 0 0 0 0 0 0 127 0" result="hardAlpha"/>
<feOffset dx="0.436531" dy="0.873062"/>
<feGaussianBlur stdDeviation="0.873062"/>
<feComposite in2="hardAlpha" operator="out"/>
<feColorMatrix type="matrix" values="0 0 0 0 0 0 0 0 0 0 0 0 0 0 0 0 0 0 0.25 0"/>
<feBlend mode="normal" in2="BackgroundImageFix" result="effect1_dropShadow_23_78"/>
<feColorMatrix in="SourceAlpha" type="matrix" values="0 0 0 0 0 0 0 0 0 0 0 0 0 0 0 0 0 0 127 0" result="hardAlpha"/>
<feOffset dx="-0.436531" dy="0.873062"/>
<feGaussianBlur stdDeviation="0.873062"/>
<feComposite in2="hardAlpha" operator="out"/>
<feColorMatrix type="matrix" values="0 0 0 0 0 0 0 0 0 0 0 0 0 0 0 0 0 0 0.25 0"/>
<feBlend mode="normal" in2="effect1_dropShadow_23_78" result="effect2_dropShadow_23_78"/>
<feBlend mode="normal" in="SourceGraphic" in2="effect2_dropShadow_23_78" result="shape"/>
</filter>
<filter id="filter1_d_23_78" x="69.4083" y="42.7793" width="17.9821" height="22.263" filterUnits="userSpaceOnUse" color-interpolation-filters="sRGB">
<feFlood flood-opacity="0" result="BackgroundImageFix"/>
<feColorMatrix in="SourceAlpha" type="matrix" values="0 0 0 0 0 0 0 0 0 0 0 0 0 0 0 0 0 0 127 0" result="hardAlpha"/>
<feOffset dx="0.436531" dy="0.873062"/>
<feGaussianBlur stdDeviation="0.873062"/>
<feComposite in2="hardAlpha" operator="out"/>
<feColorMatrix type="matrix" values="0 0 0 0 0 0 0 0 0 0 0 0 0 0 0 0 0 0 0.25 0"/>
<feBlend mode="normal" in2="BackgroundImageFix" result="effect1_dropShadow_23_78"/>
<feBlend mode="normal" in="SourceGraphic" in2="effect1_dropShadow_23_78" result="shape"/>
</filter>
<filter id="filter2_dd_23_78" x="68.5352" y="42.7793" width="18.8551" height="23.1361" filterUnits="userSpaceOnUse" color-interpolation-filters="sRGB">
<feFlood flood-opacity="0" result="BackgroundImageFix"/>
<feColorMatrix in="SourceAlpha" type="matrix" values="0 0 0 0 0 0 0 0 0 0 0 0 0 0 0 0 0 0 127 0" result="hardAlpha"/>
<feOffset dx="0.436531" dy="1.74612"/>
<feGaussianBlur stdDeviation="0.873062"/>
<feComposite in2="hardAlpha" operator="out"/>
<feColorMatrix type="matrix" values="0 0 0 0 0 0 0 0 0 0 0 0 0 0 0 0 0 0 0.25 0"/>
<feBlend mode="normal" in2="BackgroundImageFix" result="effect1_dropShadow_23_78"/>
<feColorMatrix in="SourceAlpha" type="matrix" values="0 0 0 0 0 0 0 0 0 0 0 0 0 0 0 0 0 0 127 0" result="hardAlpha"/>
<feOffset dx="-0.436531" dy="0.873062"/>
<feGaussianBlur stdDeviation="0.873062"/>
<feComposite in2="hardAlpha" operator="out"/>
<feColorMatrix type="matrix" values="0 0 0 0 0 0 0 0 0 0 0 0 0 0 0 0 0 0 0.25 0"/>
<feBlend mode="normal" in2="effect1_dropShadow_23_78" result="effect2_dropShadow_23_78"/>
<feBlend mode="normal" in="SourceGraphic" in2="effect2_dropShadow_23_78" result="shape"/>
</filter>
</defs>
</svg>
